{"title":"Chalet Girl 2011 720p BRRip x264 (mkv) [TFRG] ","uid":6692526,"size":2671964162,"categoryP":"video","categoryS":"hd___movies","magnet":"?xt=urn:btih:c59cf13c3254ccf643d5fac8760a31f63a1deb7c&amp;dn=Chalet+Girl+2011+720p+BRRip+x264+%28mkv%29+%5BTFRG%5D+&amp;tr=udp%3A%2F%2Ftracker.openbittorrent.com%3A80&amp;tr=udp%3A%2F%2Fopen.demonii.com%3A1337&amp;tr=udp%3A%2F%2Ftracker.coppersurfer.tk%3A6969&amp;tr=udp%3A%2F%2Fexodus.desync.com%3A6969","seeders":0,"leechers":0,"uploader":"grey.shadow","files":6,"time":1316650886,"description":"***************************************************************\n &lt;a href=&quot;\nhttp://www.torrentforce.org/imghost/3/greyshadow_tfbanner.png&quot; rel=&quot;nofollow&quot; target=&quot;_NEW&quot;&gt;\nhttp://www.torrentforce.org/imghost/3/greyshadow_tfbanner.png&lt;/a&gt;\n\n***************************************************************\n &lt;a href=&quot;\nhttp://www.torrentforce.org/imghost/4/greyshadow_chaletgirl.jpg&quot; rel=&quot;nofollow&quot; target=&quot;_NEW&quot;&gt;\nhttp://www.torrentforce.org/imghost/4/greyshadow_chaletgirl.jpg&lt;/a&gt;\n\n***************************************************************\n\nFILM TITLE: Chalet Girl (2011)\n\n***************************************************************\n\nGenre: Comedy | Romance   \n\nRelease: 16 March 2011 (UK)\n\nDirector: Phil Traill\n\nWriter: Tom Williams\n\nStars: Felicity Jones, Ed Westwick and Bill Nighy\n\nCountry: UK | Germany | Austria\n\nLanguage: English | German\n\nPlot:\nPretty tomboy Kim Matthews, 19, used to be a champion skateboarder\n- but now she's stuck in a dead end job trying to support her Dad...\n\nIMDB Rating: 5.9/10 (1,803 Votes)\n &lt;a href=&quot;\nhttp://www.imdb.com/title/tt1487118/&quot; rel=&quot;nofollow&quot; target=&quot;_NEW&quot;&gt;\nhttp://www.imdb.com/title/tt1487118/&lt;/a&gt;  \n\n****************************************************************\n &lt;a href=&quot;\nhttp://www.torrentforce.org/imghost/4/greyshadow_ChaletGirlx2641.png&quot; rel=&quot;nofollow&quot; target=&quot;_NEW&quot;&gt;\nhttp://www.torrentforce.org/imghost/4/greyshadow_ChaletGirlx2641.png&lt;/a&gt; &lt;a href=&quot;\nhttp://www.torrentforce.org/imghost/4/greyshadow_ChaletGirlx2642.png&quot; rel=&quot;nofollow&quot; target=&quot;_NEW&quot;&gt;\nhttp://www.torrentforce.org/imghost/4/greyshadow_ChaletGirlx2642.png&lt;/a&gt; &lt;a href=&quot;\nhttp://www.torrentforce.org/imghost/4/greyshadow_ChaletGirlx2643.png&quot; rel=&quot;nofollow&quot; target=&quot;_NEW&quot;&gt;\nhttp://www.torrentforce.org/imghost/4/greyshadow_ChaletGirlx2643.png&lt;/a&gt; &lt;a href=&quot;\nhttp://www.torrentforce.org/imghost/4/greyshadow_ChaletGirlx2644.png&quot; rel=&quot;nofollow&quot; target=&quot;_NEW&quot;&gt;\nhttp://www.torrentforce.org/imghost/4/greyshadow_ChaletGirlx2644.png&lt;/a&gt;\n\n****************************************************************\n\n[IMG]http://www.torrentforce.org/imghost/2/greyshadow_mediainfo.png[/IMG]\nGeneral\nComplete name                    : Chalet Girl 2011 720p BRRip x264 (mkv) [TFRG].mkv\nFormat                           : Matroska\nFormat version                   : Version 2\nFile size                        : 2.46 GiB\nDuration                         : 1h 36mn\nOverall bit rate                 : 3648 Kbps\nEncoded date                     : UTC 2011-09-21 12:37:39\nWriting application              : mkvmerge v4.9.1 ('Ich will') built on Jul 11 2011 23:53:15\nWriting library                  : libebml v1.2.1 + libmatroska v1.1.1\n\nVideo\nID                               : 1\nFormat                           : AVC\nFormat/Info                      : Advanced Video Codec\nFormat profile                   : &lt;a class=&quot;__cf_email__&quot; href=&quot;/cdn-cgi/l/email-protection&quot; data-cfemail=&quot;024a6b656a424e362c33&quot;&gt;[email&amp;#160;protected]&lt;/a&gt;&lt;script data-cfhash='f9e31' type=&quot;text/javascript&quot;&gt;\n/* &lt;![CDATA[ */!function(){try{var t=&quot;currentScript&quot;in document?document.currentScript:function(){for(var t=document.getElementsByTagName(&quot;script&quot;),e=t.length;e--;)if(t[e].getAttribute(&quot;data-cfhash&quot;))return t[e]}();if(t&amp;&amp;t.previousSibling){var e,r,n,i,c=t.previousSibling,a=c.getAttribute(&quot;data-cfemail&quot;);if(a){for(e=&quot;&quot;,r=parseInt(a.substr(0,2),16),n=2;a.length-n;n+=2)i=parseInt(a.substr(n,2),16)^r,e+=String.fromCharCode(i);e=document.createTextNode(e),c.parentNode.replaceChild(e,c)}t.parentNode.removeChild(t);}}catch(u){}}()/* ]]&gt; */&lt;/script&gt;\nFormat settings, CABAC           : Yes\nFormat settings, ReFrames        : 9 frames\nCodec ID                         : V_MPEG4/ISO/AVC\nDuration                         : 1h 36mn\nBit rate                         : 3200 Kbps\nWidth                            : 1280 pixels\nHeight                           : 688 pixels\nDisplay aspect ratio             : 1.860\nFrame rate                       : 23.976 fps\nColor space                      : YUV\nChroma subsampling               : 4:2:0\nBit depth                        : 8 bits\nScan type                        : Progressive\nBits/(Pixel*Frame)               : 0.152\nStream size                      : 2.11 GiB (86%)\nTitle                            : AVC MPEG4 Video\nWriting library                  : x264 core 116 r2074 2641b9e\nLanguage                         : English\nColor primaries                  : BT.709-5, BT.1361, IEC 61966-2-4, SMPTE RP177\nTransfer characteristics         : BT.709-5, BT.1361\nMatrix coefficients              : BT.709-5, BT.1361, IEC 61966-2-4 709, SMPTE RP177\n\nAudio\nID                               : 2\nFormat                           : AC-3\nFormat/Info                      : Audio Coding 3\nMode extension                   : CM (complete main)\nCodec ID                         : A_AC3\nDuration                         : 1h 36mn\nBit rate mode                    : Constant\nBit rate                         : 448 Kbps\nChannel(s)                       : 6 channels\nChannel positions                : Front: L C R, Side: L R, LFE\nSampling rate                    : 48.0 KHz\nBit depth                        : 16 bits\nCompression mode                 : Lossy\nStream size                      : 310 MiB (12%)\nTitle                            : AC3 5.1 Audio\nLanguage                         : English\n\nText\nID                               : 3\nFormat                           : UTF-8\nCodec ID                         : S_TEXT/UTF8\nCodec ID/Info                    : UTF-8 Plain Text\nTitle                            : English Subtitle sup to srt\nLanguage                         : English\n\n****************************************************************\n\nVideo Source: Chalet Girls 2011 BluRay 1080p AVC DTS-HD MA5.1-CHDBits (27GB)\n\nThanks: (chdbits.org)\n\n****************************************************************\n\nI provide a small sample, so please download this to check your \ncompatibility first if you are unsure.\n\n****************************************************************\n\nA big thanks to all the sites out there who care and share and\nwho make it possible for you to download this torrent for free.\n\nGreetz to Ripwyn, mustang, noir, Blackjesus and all the other \noutstanding members of our community of file sharers, and a \nspecial mention to our friends at 1337x.  \n\n****************************************************************","torrent":{"xt":"urn:btih:c59cf13c3254ccf643d5fac8760a31f63a1deb7c","amp;dn":"Chalet+Girl+2011+720p+BRRip+x264+%28mkv%29+%5BTFRG%5D+","amp;tr":["udp%3A%2F%2Ftracker.openbittorrent.com%3A80","udp%3A%2F%2Fopen.demonii.com%3A1337","udp%3A%2F%2Ftracker.coppersurfer.tk%3A6969","udp%3A%2F%2Fexodus.desync.com%3A6969"],"infoHash":"c59cf13c3254ccf643d5fac8760a31f63a1deb7c","infoHashBuffer":{"type":"Buffer","data":[197,156,241,60,50,84,204,246,67,213,250,200,118,10,49,246,58,29,235,124]},"announce":[],"urlList":[]}}